<svg xmlns="http://www.w3.org/2000/svg" width="32" height="30" viewBox="0 0 32 30">
  <path fill="#F2F2F2" d="M42.9521634,32 C44.3448798,32 45.5950917,32.8540399 46.1015586,34.1514027 L54.8303979,56.5111468 C55.5094137,58.2505097 54.6498325,60.2109931 52.9104695,60.8900089 C52.5186162,61.0429813 52.1016565,61.1214832 51.6810027,61.1214832 L28.3172692,61.1214832 C26.4500665,61.1214832 24.9363997,59.6078164 24.9363997,57.7406137 C24.9363997,57.3157798 25.0164692,56.8947518 25.1724159,56.4995753 L33.9961338,34.1398312 C34.5057018,32.8485605 35.7528087,32 37.1409872,32 L42.9521634,32 Z M36.4935113,38.147479 C36.2069261,38.2614695 35.9795823,38.4879347 35.8644831,38.7740763 L29.1712434,55.4137502 C28.938972,55.9911867 29.2187836,56.6475846 29.79622,56.879856 C29.9299136,56.9336337 30.0726805,56.9612713 30.2167846,56.9612713 L43.5285238,56.9612713 C44.1509247,56.9612713 44.6554803,56.4567157 44.6554803,55.8343148 C44.6554803,55.6916785 44.6284027,55.5503387 44.5756856,55.4178018 L38.1972187,39.3815977 L37.9571861,38.7781279 C37.7271523,38.1997964 37.0718428,37.9174453 36.4935113,38.147479 Z" transform="translate(-24 -32)"/>
</svg>
